HIERARCHY
ROOT Hips
{
  OFFSET 196.326 95.9168 97.7182
  CHANNELS 6 Xposition Yposition Zposition Zrotation Xrotation Yrotation
  JOINT LeftUpLeg
  {
    OFFSET 8.64259 1.95398 -2.38835
    CHANNELS 3 Zrotation Xrotation Yrotation
    JOINT LeftLeg
    {
      OFFSET 43.7702 0 0
      CHANNELS 3 Zrotation Xrotation Yrotation
      JOINT LeftFoot
      {
        OFFSET 40.6238 0 0
        CHANNELS 3 Zrotation Xrotation Yrotation
        JOINT LeftToeBase
        {
          OFFSET 12.7242 0 0
          CHANNELS 3 Zrotation Xrotation Yrotation
          End Site
          {
            OFFSET 0 0 0
          }
        }
      }
    }
  }
  JOINT RightUpLeg
  {
    OFFSET -8.2249 1.95398 -2.59336
    CHANNELS 3 Zrotation Xrotation Yrotation
    JOINT RightLeg
    {
      OFFSET 43.5653 0 0
      CHANNELS 3 Zrotation Xrotation Yrotation
      JOINT RightFoot
      {
        OFFSET 40.6238 0 0
        CHANNELS 3 Zrotation Xrotation Yrotation
        JOINT RightToeBase
        {
          OFFSET 12.7242 0 0
          CHANNELS 3 Zrotation Xrotation Yrotation
          End Site
          {
            OFFSET 0 0 0
          }
        }
      }
    }
  }
  JOINT Spine
  {
    OFFSET 0.165834 0.87714 6.61349
    CHANNELS 3 Zrotation Xrotation Yrotation
    JOINT Spine1
    {
      OFFSET 7.38963 1.71661e-005 0
      CHANNELS 3 Zrotation Xrotation Yrotation
      JOINT Spine2
      {
        OFFSET 11.9445 1.14441e-005 0
        CHANNELS 3 Zrotation Xrotation Yrotation
        JOINT Spine3
        {
          OFFSET 14.7254 4.19617e-005 0
          CHANNELS 3 Zrotation Xrotation Yrotation
          JOINT Spine4
          {
            OFFSET 10.9679 0 0
            CHANNELS 3 Zrotation Xrotation Yrotation
            JOINT RightShoulder
            {
              OFFSET 2.46616 -1.6653 3.69651
              CHANNELS 3 Zrotation Xrotation Yrotation
              JOINT RightArm
              {
                OFFSET 13.0012 0 0
                CHANNELS 3 Zrotation Xrotation Yrotation
                JOINT RightForeArm
                {
                  OFFSET 28.7848 1.52588e-005 0
                  CHANNELS 3 Zrotation Xrotation Yrotation
                  JOINT RightHand
                  {
                    OFFSET 26.5688 1.52588e-005 0
                    CHANNELS 3 Zrotation Xrotation Yrotation
                    End Site
                    {
                      OFFSET 0 0 0
                    }
                  }
                }
              }
            }
            JOINT LeftShoulder
            {
              OFFSET 2.38034 -1.29275 -3.75231
              CHANNELS 3 Zrotation Xrotation Yrotation
              JOINT LeftArm
              {
                OFFSET 16.3182 6.10351e-005 0
                CHANNELS 3 Zrotation Xrotation Yrotation
                JOINT LeftForeArm
                {
                  OFFSET 27.0901 0 0
                  CHANNELS 3 Zrotation Xrotation Yrotation
                  JOINT LeftHand
                  {
                    OFFSET 24.5451 1.52588e-005 0
                    CHANNELS 3 Zrotation Xrotation Yrotation
                    End Site
                    {
                      OFFSET 0 0 0
                    }
                  }
                }
              }
            }
            JOINT Neck
            {
              OFFSET 5.0226 -0.0266342 0
              CHANNELS 3 Zrotation Xrotation Yrotation
              JOINT Head
              {
                OFFSET 6.69363 2.86102e-005 0
                CHANNELS 3 Zrotation Xrotation Yrotation
                End Site
                {
                  OFFSET 0 0 0
                }
              }
            }
          }
        }
      }
    }
  }
}
MOTION
Frames:	9
Frame Time:	0.0416667
-45.7362 93.9422 -44.2131 85.654 -36.5576 85.0445 -173.096 -2.80855 88.7665 -21.9257 26.2514 -0.290887 61.3865 7.95131 14.837 60.3349 27.0326 -18.0347 -178.046 30.0728 85.259 -8.02128 9.187 -1.99953 65.5105 -1.56152 -0.795612 58.7206 4.37962 12.3547 -1.08012 7.27318 -89.9096 12.3333 -2.1035 0.418556 0.66399 -2.08306 0.510762 -21.8848 -2.13202 -0.233278 -1.87215 -2.13201 -0.233277 79.737 -54.4692 -114.553 30.5525 -6.80352 26.0554 -8.01909 -23.089 -28.0246 -2.43114 -0.39016 4.20886 -99.1312 -39.3747 61.056 -18.984 4.05006 -4.62603 11.3096 4.7031 -57.6101 15.304 1.12883 3.46007 10.7596 1.7649 -0.403499 -3.9771 1.89138 3.02865 
-36.6482 91.3871 -33.348 87.4683 -36.5736 88.4526 -173.142 -4.8108 94.0537 -33.7917 28.3008 2.06042 52.2756 -1.12504 9.12171 70.3447 36.9156 -14.0554 -179.746 32.3683 89.2646 -25.7825 9.6853 -0.310013 62.0849 -1.40432 -0.731083 48.819 2.42031 11.653 -1.21492 7.335 -90.1539 12.2083 -2.48772 -0.0299502 0.539809 -2.4866 0.0796389 -22.0134 -2.36361 -0.776646 -2.0007 -2.36361 -0.776641 79.9321 -54.3479 -114.323 30.3815 -5.46327 27.5452 -7.54277 -23.2564 -25.8434 -2.42251 -0.382914 3.44539 -99.1743 -40.172 61.3338 -18.7418 0.976794 -2.41405 8.3608 1.25232 -59.4981 13.6114 0.976836 3.18439 9.42125 2.28496 -0.41482 -3.73372 2.42667 3.75448 
-28.0196 90.9737 -23.5922 89.6273 -38.7887 93.0013 -173.012 3.23838 98.8049 -51.7887 20.5686 1.91215 37.0142 -12.273 2.53515 50.2592 22.5381 -3.72511 179.343 30.4619 95.3144 -40.2369 11.2765 0.138789 65.8708 -2.25985 -1.19053 34.3027 0.123491 19.0348 -0.877624 7.42936 -90.4321 12.008 -1.94853 -0.647359 0.338423 -1.9751 -0.560954 -22.2043 -1.66389 -1.20315 -2.19168 -1.66387 -1.20315 79.8522 -51.7662 -115.418 31.7736 -5.56874 24.0062 -7.64439 -20.7104 -28.6862 -2.54826 -0.384895 4.72222 -100.845 -42.1284 59.5607 -21.6013 2.61632 0.787473 7.93783 2.77526 -52.5863 17.0162 1.37307 4.22062 8.42472 2.14494 -0.242117 -4.30825 2.22809 3.5473 
-20.0541 93.5825 -14.4515 90.1424 -41.2427 91.4346 -171.954 16.0793 94.0488 -57.3841 15.2361 0.00768142 46.3266 -4.88454 8.88871 56.8348 27.7192 -7.53271 -179.21 19.7156 95.8744 -35.8665 11.3142 -1.87608 71.0888 -3.35691 -1.73653 33.122 -0.215146 19.2044 -0.350772 7.42359 -90.0593 12.0288 -0.725394 -0.040057 0.358046 -0.726457 -0.00809223 -22.1787 -0.67983 -0.256222 -2.16605 -0.679822 -0.256228 80.4752 -50.1765 -115.119 31.4045 -7.84626 16.1382 -8.64507 -16.9968 -37.4568 -7.02684 -0.603207 3.48522 -101.363 -42.6118 58.9693 -27.4036 5.89665 2.90976 6.80816 7.76342 -38.9669 17.8366 1.63126 5.28124 7.07381 1.09706 -0.610612 -4.06007 1.27088 3.07164 
-12.0016 95.6508 -5.78798 88.6601 -45.4451 87.9443 -170.183 21.7785 89.1201 -36.295 8.12387 -2.40849 54.2816 1.80494 11.9919 63.0848 33.7113 -7.18068 -179.654 9.65314 93.8956 -28.8858 7.16377 -2.58647 70.8812 -2.9883 -1.53753 36.8261 0.657199 20.2011 0.256977 7.25938 -89.674 12.3532 0.665524 0.575408 0.682313 0.6902 0.545554 -21.8526 0.461808 0.748816 -1.83993 0.461823 0.748815 81.436 -48.3458 -114.397 28.2851 -11.1349 7.78617 -11.2433 -13.6251 -48.2478 -10.0251 -0.757086 3.19505 -101.415 -42.8305 58.9874 -33.7071 7.89341 8.62654 3.51016 9.15193 -28.5032 14.9876 1.349 5.03859 7.26604 0.766113 -0.225461 -3.87046 0.854757 2.29075 
-3.28445 95.4278 1.7889 84.9735 -50.5515 85.7853 -172.908 23.502 89.9274 -5.17523 0.336829 -1.58909 59.4779 5.00081 9.79088 59.7987 34.5479 1.92149 179.116 2.19028 92.8605 -23.983 0.984293 -2.36557 71.0638 -3.78586 -1.93662 40.8837 1.57956 19.0448 0.891972 7.11875 -89.7175 12.6348 1.90665 0.341167 0.965221 1.91981 0.256883 -21.5791 1.71592 0.898571 -1.56649 1.71594 0.898572 83.27 -44.4995 -113.05 24.017 -12.4128 -2.58965 -15.3838 -12.1658 -57.4799 -11.0048 -0.74095 2.30136 -101.478 -43.7779 59.3101 -38.1923 7.69105 14.6408 2.81147 11.9092 -23.9863 12.2278 1.03489 4.40858 10.39 1.20415 1.02677 -5.61179 0.962191 1.97855 
6.01617 93.3417 9.82651 84.0788 -54.799 85.6616 -174.29 29.5791 91.8811 -6.26142 5.75416 -0.665898 62.3807 5.09218 10.3655 60.9339 35.8946 2.23656 178.462 -2.61056 90.841 -28.5375 -4.51325 -4.22835 68.7411 -3.53247 -1.96842 52.7526 4.22934 17.6318 1.32625 7.1814 -89.7124 12.5102 2.7719 0.254961 0.842184 2.78045 0.132617 -21.7138 2.56705 1.07678 -1.70116 2.56707 1.07678 83.2336 -43.5335 -113.487 19.4473 -11.0042 -9.06846 -17.6918 -10.79 -63.6338 -11.8896 -0.860624 3.14328 -99.7881 -43.8013 61.9078 -41.4235 6.84968 18.4477 2.34253 13.2681 -21.1488 11.0786 1.01324 4.97474 12.1261 1.38385 0.348003 -6.19986 1.27937 2.81759 
16.5863 91.3771 19.1394 85.8839 -53.1217 83.0507 -172.132 31.0178 87.0097 -22.0839 12.9214 -3.27865 55.5471 1.34575 13.3962 59.4117 26.2635 -18.3254 177.733 1.8381 87.6758 -44.8551 -2.87219 -6.38252 47.1727 1.94962 2.2008 47.0714 3.80296 30.5385 1.15664 7.21188 -89.1922 12.4394 2.68242 1.30577 0.770708 2.73729 1.18638 -21.7753 2.16597 2.05171 -1.76269 2.16596 2.05171 81.8987 -46.714 -114.333 19.551 -9.55274 -4.08324 -17.2754 -8.43516 -65.9691 -14.0123 -1.03438 3.63382 -100.187 -43.0559 60.9802 -41.6785 7.31758 19.2886 1.41942 16.1015 -18.0833 9.0303 0.850475 5.0284 10.4061 0.253924 -1.45961 -5.91186 0.59913 2.82226 
26.3041 91.9823 27.2567 87.578 -50.7728 83.1437 -171.983 26.3141 83.9245 -30.6578 14.0503 -3.70729 60.3219 6.58982 16.9493 45.8489 13.3212 -33.1413 178.96 13.6219 85.8479 -64.5227 8.75564 -5.86988 38.2818 1.60924 2.1464 27.7026 -1.47721 19.1739 0.682325 7.32115 -89.1322 12.2179 1.76722 1.53483 0.547379 1.83305 1.45554 -21.9858 1.22433 1.9949 -1.97316 1.22434 1.99489 82.0335 -48.2114 -113.543 23.7441 -10.9781 1.87738 -14.5462 -10.8999 -58.6346 -13.7575 -0.927951 2.7917 -101.294 -42.1907 58.8869 -39.7969 6.91598 15.9305 3.0601 14.2607 -21.7078 9.83061 0.900739 4.88329 10.1594 0.74779 -0.797447 -5.12646 0.951109 2.76084 
